<svg width="914" height="400" fill="none" xmlns="http://www.w3.org/2000/svg">
  <path fill="#fff" d="M0 0h914v400H0z"/>
  <path d="M418.267 201h-5.072l-3.049-5.045a17.141 17.141 0 00-.656-1.025 5.098 5.098 0 00-.643-.766 2.217 2.217 0 00-.67-.492 1.598 1.598 0 00-.752-.178h-1.189V201h-4.416v-19.605h7c4.758 0 7.136 1.777 7.136 5.332a5.57 5.57 0 01-.314 1.9 5.294 5.294 0 01-.889 1.559 5.598 5.598 0 01-1.394 1.203 7.063 7.063 0 01-1.805.793v.054c.292.091.574.242.848.452.273.2.538.437.793.71.255.274.497.57.724.889.237.31.452.615.643.916l3.705 5.797zm-12.031-16.297v5.455h1.914c.948 0 1.709-.273 2.283-.82.583-.556.875-1.244.875-2.065 0-1.713-1.025-2.57-3.076-2.57h-1.996zM419.553 201v-19.605h6.945c6.964 0 10.445 3.185 10.445 9.556 0 3.054-.952 5.492-2.857 7.315-1.896 1.823-4.425 2.734-7.588 2.734h-6.945zm4.416-16.01v12.428h2.187c1.914 0 3.414-.574 4.498-1.723 1.094-1.148 1.641-2.711 1.641-4.689 0-1.869-.542-3.336-1.627-4.402-1.076-1.076-2.589-1.614-4.539-1.614h-2.16zm14.766 15.258v-4.375a8.52 8.52 0 002.584 1.504 8.41 8.41 0 002.816.492c.556 0 1.039-.05 1.45-.15.419-.101.765-.237 1.039-.41.282-.183.492-.392.629-.629.136-.246.205-.511.205-.793a1.7 1.7 0 00-.329-1.026 3.502 3.502 0 00-.902-.834 9.035 9.035 0 00-1.34-.738 47.916 47.916 0 00-1.681-.725c-1.532-.638-2.676-1.417-3.432-2.337-.747-.921-1.121-2.033-1.121-3.336 0-1.021.205-1.896.615-2.625a5.223 5.223 0 011.668-1.819c.711-.474 1.531-.82 2.461-1.039.93-.228 1.914-.342 2.953-.342 1.021 0 1.923.064 2.707.192.793.118 1.522.305 2.188.56v4.088a6.444 6.444 0 00-1.08-.601 7.684 7.684 0 00-1.19-.424 8.425 8.425 0 00-1.23-.26 8.462 8.462 0 00-1.149-.082c-.501 0-.957.05-1.367.15-.41.092-.756.224-1.039.397a1.973 1.973 0 00-.656.629 1.441 1.441 0 00-.233.806c0 .329.087.625.26.889.173.255.419.501.738.738a8.76 8.76 0 001.162.684c.456.219.971.447 1.545.684.784.328 1.486.679 2.106 1.052.629.365 1.167.78 1.613 1.244a4.86 4.86 0 011.026 1.6c.237.593.355 1.285.355 2.078 0 1.094-.21 2.015-.629 2.762a5.07 5.07 0 01-1.682 1.805c-.71.455-1.54.783-2.488.984a14.21 14.21 0 01-2.98.301c-1.076 0-2.101-.091-3.076-.274-.967-.182-1.805-.455-2.516-.82zm25.304-17.186V201h-1.819v-17.938h-5.646v-1.667h13.125v1.667h-5.66zm10.87 18.266c-1.04 0-1.974-.173-2.803-.519a6.044 6.044 0 01-2.106-1.463 6.55 6.55 0 01-1.34-2.284c-.309-.884-.464-1.863-.464-2.939 0-1.167.164-2.21.492-3.131.328-.92.793-1.7 1.394-2.338a6.012 6.012 0 012.202-1.476c.856-.338 1.813-.506 2.871-.506 1.011 0 1.923.168 2.734.506a5.507 5.507 0 012.064 1.435c.566.629.998 1.395 1.299 2.297.301.902.451 1.928.451 3.076 0 1.094-.159 2.092-.478 2.994a6.671 6.671 0 01-1.34 2.311 5.964 5.964 0 01-2.133 1.504c-.838.355-1.786.533-2.843.533zm.136-13.139c-.765 0-1.458.133-2.078.397a4.39 4.39 0 00-1.6 1.162c-.437.501-.774 1.121-1.011 1.859-.237.73-.356 1.559-.356 2.489 0 .875.119 1.663.356 2.365a5.4 5.4 0 00.998 1.805c.437.501.966.888 1.586 1.162.62.264 1.312.396 2.078.396.784 0 1.476-.127 2.078-.383a4.196 4.196 0 001.531-1.134c.42-.502.734-1.112.944-1.832.218-.72.328-1.541.328-2.461 0-1.887-.42-3.327-1.258-4.321-.839-1.002-2.037-1.504-3.596-1.504zm15.354 13.139c-1.039 0-1.973-.173-2.802-.519a6.034 6.034 0 01-2.106-1.463 6.55 6.55 0 01-1.34-2.284c-.31-.884-.465-1.863-.465-2.939 0-1.167.164-2.21.493-3.131.328-.92.793-1.7 1.394-2.338a6.016 6.016 0 012.201-1.476c.857-.338 1.814-.506 2.871-.506 1.012 0 1.924.168 2.735.506a5.507 5.507 0 012.064 1.435c.565.629.998 1.395 1.299 2.297.301.902.451 1.928.451 3.076 0 1.094-.159 2.092-.478 2.994a6.671 6.671 0 01-1.34 2.311 5.964 5.964 0 01-2.133 1.504c-.838.355-1.786.533-2.844.533zm.137-13.139c-.766 0-1.458.133-2.078.397a4.39 4.39 0 00-1.6 1.162c-.437.501-.774 1.121-1.011 1.859-.237.73-.356 1.559-.356 2.489 0 .875.119 1.663.356 2.365a5.4 5.4 0 00.998 1.805c.437.501.966.888 1.586 1.162.619.264 1.312.396 2.078.396.784 0 1.476-.127 2.078-.383a4.205 4.205 0 001.531-1.134c.419-.502.734-1.112.943-1.832.219-.72.329-1.541.329-2.461 0-1.887-.42-3.327-1.258-4.321-.839-1.002-2.037-1.504-3.596-1.504zM500.162 201v-20.727h1.75V201h-1.75zm4.908-2.516a5.6 5.6 0 00.862.561c.31.164.629.305.957.424.328.118.656.209.984.273.337.055.656.082.957.082 2.078 0 3.117-.779 3.117-2.338 0-.355-.073-.66-.218-.916a2.317 2.317 0 00-.629-.711 5.077 5.077 0 00-.985-.601 27.995 27.995 0 00-1.299-.574 13.197 13.197 0 01-1.668-.807 5.172 5.172 0 01-1.148-.889 3.321 3.321 0 01-.67-1.066 3.779 3.779 0 01-.219-1.326c0-.62.132-1.172.397-1.655a3.908 3.908 0 011.094-1.23 4.94 4.94 0 011.572-.766 6.475 6.475 0 011.887-.273c1.212 0 2.269.228 3.171.683v1.846c-1.048-.674-2.178-1.012-3.39-1.012-.438 0-.839.055-1.203.165a2.792 2.792 0 00-.916.464 2.186 2.186 0 00-.602.725 2.015 2.015 0 00-.205.916c0 .346.055.652.164.916.109.255.278.488.506.697.237.21.538.41.902.602.374.191.825.396 1.354.615a16.07 16.07 0 011.75.82c.492.265.898.556 1.217.875.319.31.556.661.711 1.053.154.383.232.83.232 1.34 0 .629-.132 1.189-.397 1.682a3.534 3.534 0 01-1.08 1.244 4.89 4.89 0 01-1.613.765c-.62.174-1.294.26-2.023.26-1.413 0-2.603-.296-3.569-.889v-1.955z" fill="#333"/>
  <path d="M402.016 226l-1.688-3.211a6.472 6.472 0 00-.484-.797 2.397 2.397 0 00-.485-.508 1.503 1.503 0 00-.539-.273 2.166 2.166 0 00-.632-.086h-1.235V226h-1.039v-11.203h3.227c.421 0 .828.062 1.218.187.396.125.748.31 1.055.555.307.245.552.552.734.922.188.37.282.799.282 1.289 0 .396-.06.76-.18 1.094a2.81 2.81 0 01-.516.89 3.036 3.036 0 01-.804.657c-.313.177-.667.31-1.063.398v.031c.151.063.289.144.414.242.125.099.245.219.36.36.119.14.237.302.351.484.115.183.235.391.36.625l1.882 3.469h-1.218zm-5.063-10.25v4.43h1.859c.376 0 .719-.055 1.032-.164.312-.11.578-.266.797-.469.224-.203.395-.448.515-.735.125-.286.188-.609.188-.968 0-.651-.211-1.162-.633-1.532-.417-.374-1.021-.562-1.813-.562h-1.945zm8.055 6.43c.005.489.07.929.195 1.32s.305.721.539.992c.235.271.518.479.852.625.338.141.718.211 1.14.211.901 0 1.753-.315 2.555-.945v.984c-.766.547-1.693.821-2.781.821a3.66 3.66 0 01-1.461-.282 3.037 3.037 0 01-1.117-.812c-.308-.36-.545-.8-.711-1.321-.167-.52-.25-1.114-.25-1.781 0-.599.091-1.153.273-1.664.182-.51.435-.95.758-1.32a3.427 3.427 0 011.148-.875 3.3 3.3 0 011.454-.321c.515 0 .971.092 1.367.274.396.177.726.432.992.766.271.333.477.739.617 1.218.141.479.211 1.016.211 1.61v.5h-5.781zm4.75-.875c-.016-.834-.214-1.479-.594-1.938-.38-.458-.909-.687-1.586-.687-.338 0-.654.06-.945.179a2.23 2.23 0 00-.758.524c-.219.224-.401.5-.547.828-.14.323-.239.687-.297 1.094h4.727zm8.601 4.695v-1.406h-.031a2.865 2.865 0 01-1.14 1.179c-.49.276-1.047.415-1.672.415-.5 0-.956-.092-1.368-.274a2.962 2.962 0 01-1.046-.805 3.756 3.756 0 01-.68-1.265 5.582 5.582 0 01-.234-1.68c0-.646.085-1.234.257-1.766a4.15 4.15 0 01.743-1.375 3.308 3.308 0 011.156-.89 3.484 3.484 0 011.508-.321c1.151 0 1.976.461 2.476 1.383h.031v-5.039h1V226h-1zm0-4.828c0-.349-.06-.675-.179-.977a2.33 2.33 0 00-1.274-1.32 2.428 2.428 0 00-.984-.195c-.396 0-.761.078-1.094.234a2.4 2.4 0 00-.859.68 3.27 3.27 0 00-.555 1.07 4.88 4.88 0 00-.195 1.438c0 .505.06.958.179 1.359.12.401.29.74.508 1.016.224.276.49.487.797.632.307.146.649.219 1.024.219.406 0 .77-.073 1.093-.219.328-.145.604-.346.828-.601.23-.255.404-.555.524-.899.125-.343.187-.711.187-1.101v-1.336zm4.071-5.195a.693.693 0 01-.5-.204.682.682 0 01-.211-.515c0-.203.07-.37.211-.5a.692.692 0 01.5-.203.74.74 0 01.281.054.623.623 0 01.227.141.64.64 0 01.156.227.627.627 0 01.062.281.704.704 0 01-.211.515.779.779 0 01-.234.149.7.7 0 01-.281.055zM421.938 226v-8h1v8h-1zm3.124-1.438c.152.12.316.227.493.321s.359.174.547.242c.187.068.375.12.562.156.193.031.375.047.547.047 1.187 0 1.781-.445 1.781-1.336a1.03 1.03 0 00-.125-.523 1.317 1.317 0 00-.359-.407 2.908 2.908 0 00-.563-.343 15.298 15.298 0 00-.742-.328 7.481 7.481 0 01-.953-.461 2.974 2.974 0 01-.656-.508 1.899 1.899 0 01-.383-.61 2.162 2.162 0 01-.125-.757c0-.354.075-.67.226-.946.157-.276.365-.51.626-.703.26-.192.559-.338.898-.437a3.704 3.704 0 011.078-.157c.693 0 1.297.131 1.813.391v1.055a3.51 3.51 0 00-1.938-.578c-.25 0-.479.031-.687.093a1.597 1.597 0 00-.524.266c-.146.115-.26.253-.344.414a1.156 1.156 0 00-.117.524c0 .197.031.372.094.523.062.146.159.279.289.398.135.12.307.235.516.344.213.11.471.227.773.352.385.156.719.312 1 .468.281.152.513.318.695.5.183.178.318.378.407.602.088.219.132.474.132.766a2.003 2.003 0 01-.843 1.672 2.822 2.822 0 01-.922.437c-.354.099-.74.149-1.156.149-.808 0-1.487-.17-2.04-.508v-1.118zm6.79-2.703V221h4.273v.859h-4.273zm6.281 2.5c.187.141.393.269.617.383.229.11.461.203.695.281.24.073.479.131.719.172.24.037.469.055.688.055.849 0 1.484-.164 1.906-.492.422-.328.633-.8.633-1.414 0-.297-.05-.555-.149-.774a1.898 1.898 0 00-.461-.625 4.605 4.605 0 00-.789-.57 32.813 32.813 0 00-1.125-.648c-.479-.261-.89-.506-1.234-.735a4.875 4.875 0 01-.836-.711 2.533 2.533 0 01-.477-.789 2.882 2.882 0 01-.148-.961c0-.453.096-.859.289-1.219a2.81 2.81 0 01.781-.914c.328-.255.711-.45 1.149-.586a4.82 4.82 0 011.414-.203c.88 0 1.617.123 2.211.368v1.148c-.662-.38-1.438-.57-2.328-.57a3.46 3.46 0 00-.946.125 2.45 2.45 0 00-.773.351 1.784 1.784 0 00-.524.586 1.656 1.656 0 00-.187.805c0 .292.041.544.125.758.088.208.226.406.414.593.193.188.443.375.75.563.312.182.693.393 1.141.633.468.25.877.495 1.226.734.349.235.638.482.867.742.235.256.409.529.524.821.114.286.172.606.172.961 0 .489-.092.921-.274 1.296-.182.37-.437.678-.765.922-.329.245-.719.43-1.172.555a5.609 5.609 0 01-1.493.188 5.13 5.13 0 01-.632-.047 6.367 6.367 0 01-.743-.125 7.166 7.166 0 01-.718-.188 2.671 2.671 0 01-.547-.25v-1.219zm9.508.352v4.969h-1V218h1v1.531h.031c.297-.557.693-.982 1.187-1.273a3.243 3.243 0 011.688-.446c.51 0 .966.094 1.367.282a2.76 2.76 0 011.024.781c.281.339.494.75.64 1.234a5.48 5.48 0 01.227 1.633c0 .662-.084 1.266-.25 1.813a4.203 4.203 0 01-.719 1.398 3.3 3.3 0 01-1.141.914 3.399 3.399 0 01-1.5.321c-1.125 0-1.966-.493-2.523-1.477h-.031zm0-2.039c0 .364.06.708.179 1.031.125.318.297.599.516.844.219.239.482.43.789.57.313.141.656.211 1.031.211.401 0 .763-.083 1.086-.25.323-.172.597-.414.82-.726.23-.313.404-.691.524-1.133.125-.443.187-.938.187-1.485 0-.468-.057-.89-.171-1.265a2.838 2.838 0 00-.493-.969 2.058 2.058 0 00-.765-.609 2.302 2.302 0 00-1-.211 2.62 2.62 0 00-1.125.234 2.488 2.488 0 00-.852.625 2.786 2.786 0 00-.539.938 3.373 3.373 0 00-.187 1.132v1.063zm8.187 3.328v-11.844h1V226h-1zm4.07-10.023a.697.697 0 01-.5-.204.685.685 0 01-.21-.515c0-.203.07-.37.21-.5a.696.696 0 01.5-.203c.099 0 .193.018.282.054a.61.61 0 01.226.141c.068.062.12.138.156.227a.615.615 0 01.063.281.718.718 0 01-.211.515.791.791 0 01-.234.149.706.706 0 01-.282.055zM459.406 226v-8h1v8h-1zm7.016-.094a2.48 2.48 0 01-1.125.258c-1.292 0-1.938-.745-1.938-2.234v-5.055h-1.406V218h1.406v-2.016l1-.328V218h2.063v.875h-2.063v4.898c0 .542.089.933.266 1.172.177.24.477.36.898.36.313 0 .612-.094.899-.282v.883zm9.414-10.156V226h-1.039v-10.25h-3.227v-.953h7.5v.953h-3.234zm6.531 10.438a4.116 4.116 0 01-1.601-.297 3.462 3.462 0 01-1.204-.836 3.75 3.75 0 01-.765-1.305 5.052 5.052 0 01-.266-1.68c0-.666.094-1.263.281-1.789a3.78 3.78 0 01.797-1.336 3.44 3.44 0 011.258-.843 4.444 4.444 0 011.641-.29c.578 0 1.099.097 1.562.29.464.187.857.46 1.18.82.323.359.57.797.742 1.312.172.516.258 1.102.258 1.758a5.11 5.11 0 01-.273 1.711 3.818 3.818 0 01-.766 1.32c-.333.37-.74.657-1.219.86-.479.203-1.021.305-1.625.305zm.078-7.508c-.437 0-.833.075-1.187.226a2.513 2.513 0 00-.914.664c-.25.287-.443.641-.578 1.063a4.57 4.57 0 00-.204 1.422c0 .5.068.95.204 1.351.135.401.325.745.57 1.032.25.286.552.507.906.664a3 3 0 001.188.226c.448 0 .843-.073 1.187-.219.344-.151.636-.367.875-.648.24-.287.419-.635.539-1.047.125-.411.188-.88.188-1.406 0-1.078-.24-1.901-.719-2.469-.479-.573-1.164-.859-2.055-.859zm9.094 7.508a4.112 4.112 0 01-1.601-.297 3.462 3.462 0 01-1.204-.836 3.75 3.75 0 01-.765-1.305 5.052 5.052 0 01-.266-1.68c0-.666.094-1.263.281-1.789a3.78 3.78 0 01.797-1.336 3.431 3.431 0 011.258-.843 4.444 4.444 0 011.641-.29c.578 0 1.099.097 1.562.29.464.187.857.46 1.18.82.323.359.57.797.742 1.312.172.516.258 1.102.258 1.758 0 .625-.091 1.196-.274 1.711a3.8 3.8 0 01-.765 1.32c-.334.37-.74.657-1.219.86-.479.203-1.021.305-1.625.305zm.078-7.508c-.437 0-.833.075-1.187.226a2.513 2.513 0 00-.914.664c-.25.287-.443.641-.578 1.063a4.57 4.57 0 00-.204 1.422c0 .5.068.95.204 1.351.135.401.325.745.57 1.032.25.286.552.507.906.664a3 3 0 001.188.226c.447 0 .843-.073 1.187-.219.344-.151.635-.367.875-.648.24-.287.419-.635.539-1.047.125-.411.188-.88.188-1.406 0-1.078-.24-1.901-.719-2.469-.479-.573-1.164-.859-2.055-.859zm5.821 7.32v-11.844h1V226h-1zm3.124-1.438c.152.12.316.227.493.321s.359.174.547.242c.187.068.375.12.562.156.193.031.375.047.547.047 1.187 0 1.781-.445 1.781-1.336a1.03 1.03 0 00-.125-.523 1.317 1.317 0 00-.359-.407 2.908 2.908 0 00-.563-.343 15.298 15.298 0 00-.742-.328 7.481 7.481 0 01-.953-.461 2.974 2.974 0 01-.656-.508 1.899 1.899 0 01-.383-.61 2.162 2.162 0 01-.125-.757c0-.354.075-.67.226-.946.157-.276.365-.51.626-.703.26-.192.559-.338.898-.437a3.704 3.704 0 011.078-.157c.693 0 1.297.131 1.813.391v1.055a3.51 3.51 0 00-1.938-.578c-.25 0-.479.031-.687.093a1.597 1.597 0 00-.524.266c-.146.115-.26.253-.344.414a1.156 1.156 0 00-.117.524c0 .197.031.372.094.523.062.146.159.279.289.398.135.12.307.235.516.344.213.11.471.227.773.352.385.156.719.312 1 .468.281.152.513.318.695.5.183.178.318.378.407.602.088.219.132.474.132.766a2.003 2.003 0 01-.843 1.672 2.822 2.822 0 01-.922.437c-.354.099-.74.149-1.156.149-.808 0-1.487-.17-2.04-.508v-1.118zm7.43-2.382c.005.489.07.929.196 1.32.124.391.304.721.539.992.234.271.518.479.851.625.339.141.719.211 1.141.211.901 0 1.752-.315 2.554-.945v.984c-.765.547-1.692.821-2.781.821a3.667 3.667 0 01-1.461-.282 3.045 3.045 0 01-1.117-.812c-.307-.36-.544-.8-.711-1.321-.167-.52-.25-1.114-.25-1.781 0-.599.091-1.153.274-1.664.182-.51.434-.95.757-1.32a3.42 3.42 0 011.149-.875 3.295 3.295 0 011.453-.321c.516 0 .971.092 1.367.274a2.6 2.6 0 01.992.766c.271.333.477.739.617 1.218.141.479.211 1.016.211 1.61v.5h-5.781zm4.75-.875c-.015-.834-.213-1.479-.594-1.938-.38-.458-.908-.687-1.586-.687-.338 0-.653.06-.945.179a2.24 2.24 0 00-.758.524c-.218.224-.401.5-.547.828-.14.323-.239.687-.296 1.094h4.726zm6.43 4.601a2.48 2.48 0 01-1.125.258c-1.292 0-1.938-.745-1.938-2.234v-5.055h-1.406V218h1.406v-2.016l1-.328V218h2.063v.875h-2.063v4.898c0 .542.089.933.266 1.172.177.24.477.36.898.36.313 0 .612-.094.899-.282v.883z" fill="#999"/>
</svg>
