<svg width="914" height="400" fill="none" xmlns="http://www.w3.org/2000/svg"><style>#CL0 {fill: #333;}#CL1 {fill: #D82C20;}@media (prefers-color-scheme: dark) {#CL0 {fill: #CCC;}#CL1 {fill: #D82C20;}}</style><path d="M417.987 212h-5.072l-3.049-5.045a17.141 17.141 0 0 0-.656-1.025 5.098 5.098 0 0 0-.643-.766 2.217 2.217 0 0 0-.67-.492 1.598 1.598 0 0 0-.752-.178h-1.189V212h-4.416v-19.605h7c4.758 0 7.136 1.777 7.136 5.332a5.57 5.57 0 0 1-.314 1.9 5.294 5.294 0 0 1-.889 1.559 5.598 5.598 0 0 1-1.394 1.203 7.063 7.063 0 0 1-1.805.793v.054c.292.091.574.242.848.452.273.2.538.437.793.71.255.274.497.57.724.889.237.31.452.615.643.916l3.705 5.797Zm-12.031-16.297v5.455h1.914c.948 0 1.709-.273 2.283-.82.583-.556.875-1.244.875-2.065 0-1.713-1.025-2.57-3.076-2.57h-1.996ZM419.273 212v-19.605h6.945c6.964 0 10.445 3.185 10.445 9.556 0 3.054-.952 5.492-2.857 7.315-1.896 1.823-4.425 2.734-7.588 2.734h-6.945Zm4.416-16.01v12.428h2.187c1.914 0 3.414-.574 4.498-1.723 1.094-1.148 1.641-2.711 1.641-4.689 0-1.869-.542-3.336-1.627-4.402-1.076-1.076-2.589-1.614-4.539-1.614h-2.16Zm14.766 15.258v-4.375a8.52 8.52 0 0 0 2.584 1.504 8.41 8.41 0 0 0 2.816.492c.556 0 1.039-.05 1.45-.15.419-.101.765-.237 1.039-.41.282-.183.492-.392.629-.629.136-.246.205-.511.205-.793a1.7 1.7 0 0 0-.329-1.026 3.502 3.502 0 0 0-.902-.834 9.035 9.035 0 0 0-1.34-.738 47.916 47.916 0 0 0-1.681-.725c-1.532-.638-2.676-1.417-3.432-2.337-.747-.921-1.121-2.033-1.121-3.336 0-1.021.205-1.896.615-2.625a5.223 5.223 0 0 1 1.668-1.819c.711-.474 1.531-.82 2.461-1.039.93-.228 1.914-.342 2.953-.342 1.021 0 1.923.064 2.707.192.793.118 1.522.305 2.188.56v4.088a6.444 6.444 0 0 0-1.08-.601 7.684 7.684 0 0 0-1.19-.424 8.425 8.425 0 0 0-1.23-.26 8.462 8.462 0 0 0-1.149-.082c-.501 0-.957.05-1.367.15-.41.092-.756.224-1.039.397a1.973 1.973 0 0 0-.656.629 1.441 1.441 0 0 0-.233.806c0 .329.087.625.26.889.173.255.419.501.738.738a8.76 8.76 0 0 0 1.162.684c.456.219.971.447 1.545.684.784.328 1.486.679 2.106 1.052.629.365 1.167.78 1.613 1.244a4.86 4.86 0 0 1 1.026 1.6c.237.593.355 1.285.355 2.078 0 1.094-.21 2.015-.629 2.762a5.07 5.07 0 0 1-1.682 1.805c-.71.455-1.54.783-2.488.984a14.21 14.21 0 0 1-2.98.301c-1.076 0-2.101-.091-3.076-.274-.967-.182-1.805-.455-2.516-.82Z" id="CL1"/><path d="M463.759 194.062V212h-1.819v-17.938h-5.646v-1.667h13.125v1.667h-5.66Zm10.87 18.266c-1.04 0-1.974-.173-2.803-.519a6.044 6.044 0 0 1-2.106-1.463 6.55 6.55 0 0 1-1.34-2.284c-.309-.884-.464-1.863-.464-2.939 0-1.167.164-2.21.492-3.131.328-.92.793-1.7 1.394-2.338a6.012 6.012 0 0 1 2.202-1.476c.856-.338 1.813-.506 2.871-.506 1.011 0 1.923.168 2.734.506a5.507 5.507 0 0 1 2.064 1.435c.566.629.998 1.395 1.299 2.297.301.902.451 1.928.451 3.076 0 1.094-.159 2.092-.478 2.994a6.671 6.671 0 0 1-1.34 2.311 5.964 5.964 0 0 1-2.133 1.504c-.838.355-1.786.533-2.843.533Zm.136-13.139c-.765 0-1.458.133-2.078.397a4.39 4.39 0 0 0-1.6 1.162c-.437.501-.774 1.121-1.011 1.859-.237.73-.356 1.559-.356 2.489 0 .875.119 1.663.356 2.365a5.4 5.4 0 0 0 .998 1.805c.437.501.966.888 1.586 1.162.62.264 1.312.396 2.078.396.784 0 1.476-.127 2.078-.383a4.196 4.196 0 0 0 1.531-1.134c.42-.502.734-1.112.944-1.832.218-.72.328-1.541.328-2.461 0-1.887-.42-3.327-1.258-4.321-.839-1.002-2.037-1.504-3.596-1.504Zm15.354 13.139c-1.039 0-1.973-.173-2.802-.519a6.034 6.034 0 0 1-2.106-1.463 6.55 6.55 0 0 1-1.34-2.284c-.31-.884-.465-1.863-.465-2.939 0-1.167.164-2.21.493-3.131.328-.92.793-1.7 1.394-2.338a6.016 6.016 0 0 1 2.201-1.476c.857-.338 1.814-.506 2.871-.506 1.012 0 1.924.168 2.735.506a5.507 5.507 0 0 1 2.064 1.435c.565.629.998 1.395 1.299 2.297.301.902.451 1.928.451 3.076 0 1.094-.159 2.092-.478 2.994a6.671 6.671 0 0 1-1.34 2.311 5.964 5.964 0 0 1-2.133 1.504c-.838.355-1.786.533-2.844.533Zm.137-13.139c-.766 0-1.458.133-2.078.397a4.39 4.39 0 0 0-1.6 1.162c-.437.501-.774 1.121-1.011 1.859-.237.73-.356 1.559-.356 2.489 0 .875.119 1.663.356 2.365a5.4 5.4 0 0 0 .998 1.805c.437.501.966.888 1.586 1.162.619.264 1.312.396 2.078.396.784 0 1.476-.127 2.078-.383a4.205 4.205 0 0 0 1.531-1.134c.419-.502.734-1.112.943-1.832.219-.72.329-1.541.329-2.461 0-1.887-.42-3.327-1.258-4.321-.839-1.002-2.037-1.504-3.596-1.504ZM499.882 212v-20.727h1.75V212h-1.75Zm4.908-2.516a5.6 5.6 0 0 0 .862.561c.31.164.629.305.957.424.328.118.656.209.984.273.337.055.656.082.957.082 2.078 0 3.117-.779 3.117-2.338 0-.355-.073-.66-.218-.916a2.317 2.317 0 0 0-.629-.711 5.077 5.077 0 0 0-.985-.601 27.995 27.995 0 0 0-1.299-.574 13.197 13.197 0 0 1-1.668-.807 5.172 5.172 0 0 1-1.148-.889 3.321 3.321 0 0 1-.67-1.066 3.779 3.779 0 0 1-.219-1.326c0-.62.132-1.172.397-1.655a3.908 3.908 0 0 1 1.094-1.23 4.94 4.94 0 0 1 1.572-.766 6.475 6.475 0 0 1 1.887-.273c1.212 0 2.269.228 3.171.683v1.846c-1.048-.674-2.178-1.012-3.39-1.012-.438 0-.839.055-1.203.165a2.792 2.792 0 0 0-.916.464 2.186 2.186 0 0 0-.602.725 2.015 2.015 0 0 0-.205.916c0 .346.055.652.164.916.109.255.278.488.506.697.237.21.538.41.902.602.374.191.825.396 1.354.615a16.07 16.07 0 0 1 1.75.82c.492.265.898.556 1.217.875.319.31.556.661.711 1.053.154.383.232.83.232 1.34 0 .629-.132 1.189-.397 1.682a3.534 3.534 0 0 1-1.08 1.244 4.89 4.89 0 0 1-1.613.765c-.62.174-1.294.26-2.023.26-1.413 0-2.603-.296-3.569-.889v-1.955Z" id="CL0"/></svg>